<svg width="437" height="205" viewBox="0 0 437 205" fill="none" xmlns="http://www.w3.org/2000/svg">
<path d="M377.484 17.4846C377.327 17.8489 377.14 18.1872 376.921 18.4995C376.703 18.8013 376.463 19.0668 376.203 19.2958C375.953 19.5144 375.678 19.6861 375.376 19.811C375.084 19.9359 374.782 19.9984 374.47 19.9984C374.252 19.9984 374.002 19.9411 373.721 19.8266C373.45 19.7121 373.19 19.5404 372.94 19.3114C372.701 19.0824 372.492 18.8065 372.315 18.4839C372.149 18.1508 372.066 17.7656 372.066 17.3285C372.066 16.985 372.128 16.5894 372.253 16.1418C372.388 15.6838 372.56 15.2518 372.768 14.8459C372.987 14.4399 373.237 14.0964 373.518 13.8154C373.799 13.5343 374.09 13.3938 374.392 13.3938C374.465 13.3938 374.522 13.4042 374.564 13.4251C374.616 13.4459 374.668 13.4719 374.72 13.5031C374.782 13.5343 374.855 13.576 374.939 13.628C375.022 13.6801 375.136 13.7373 375.282 13.7998C375.376 13.8414 375.48 13.8883 375.594 13.9403C375.719 13.9819 375.865 14.0288 376.032 14.0808C376.344 14.1849 376.604 14.3515 376.812 14.5805C377.02 14.8095 377.187 15.0593 377.312 15.3299C377.437 15.5901 377.52 15.8504 377.562 16.1106C377.614 16.3604 377.64 16.5634 377.64 16.7195C377.64 17.0214 377.588 17.2764 377.484 17.4846ZM376.234 16.5165C376.182 16.1002 376.094 15.7671 375.969 15.5173C375.855 15.2571 375.693 15.1269 375.485 15.1269C375.423 15.1269 375.339 15.1686 375.235 15.2518C375.142 15.3247 375.043 15.408 374.939 15.5017C374.845 15.5953 374.751 15.6838 374.658 15.7671C374.574 15.84 374.517 15.8764 374.486 15.8764C374.402 15.8764 374.304 15.8348 374.189 15.7515C374.075 15.6682 373.997 15.6266 373.955 15.6266C373.851 15.6266 373.757 15.6838 373.674 15.7983C373.601 15.9024 373.539 16.0325 373.486 16.1887C373.434 16.3344 373.393 16.4957 373.362 16.6727C373.341 16.8392 373.33 16.985 373.33 17.1099C373.33 17.3805 373.372 17.6251 373.455 17.8437C373.539 18.0623 373.637 18.2497 373.752 18.4058C373.866 18.5619 373.981 18.6816 374.095 18.7649C374.22 18.8482 374.314 18.8898 374.376 18.8898C374.574 18.8898 374.782 18.8222 375.001 18.6868C375.22 18.5411 375.417 18.359 375.594 18.1404C375.782 17.9218 375.933 17.6824 376.047 17.4221C376.172 17.1619 376.234 16.9121 376.234 16.6727V16.5165ZM378.833 20.014C378.874 19.4831 378.895 19.0043 378.895 18.5775C378.906 18.1508 378.932 17.7708 378.973 17.4378C378.869 17.3753 378.781 17.3024 378.708 17.2192C378.645 17.1359 378.614 17.0422 378.614 16.9381C378.614 16.8236 378.671 16.7143 378.786 16.6102C378.911 16.5061 379.02 16.4437 379.114 16.4229C379.155 15.9232 379.187 15.4392 379.207 14.9708C379.228 14.5024 379.239 14.034 379.239 13.5656C379.239 13.3054 379.233 13.0503 379.223 12.8005C379.213 12.5403 379.187 12.2905 379.145 12.0511C378.687 11.9678 378.38 11.7492 378.224 11.3953C378.224 11.1455 378.312 10.9841 378.489 10.9113C378.677 10.8384 378.864 10.802 379.051 10.802C379.124 10.802 379.254 10.8072 379.442 10.8176C379.629 10.8176 379.842 10.8384 380.082 10.88C380.332 10.9113 380.592 10.9685 380.863 11.0518C381.144 11.1246 381.419 11.2287 381.69 11.3641C382.481 11.7804 383.028 12.1864 383.329 12.5819C383.631 12.9775 383.782 13.3782 383.782 13.7842C383.782 13.8258 383.777 13.8726 383.767 13.9247C383.767 13.9663 383.761 14.0132 383.751 14.0652C383.689 14.3358 383.579 14.5857 383.423 14.8147C383.267 15.0437 383.08 15.2571 382.861 15.4548C382.653 15.6526 382.424 15.84 382.174 16.0169C381.924 16.1835 381.669 16.35 381.409 16.5165L381.128 16.7039C381.211 16.8392 381.31 16.9433 381.425 17.0162C381.539 17.0786 381.674 17.1463 381.831 17.2192L381.987 17.266C382.84 17.8385 383.267 18.5099 383.267 19.2802C383.267 19.8422 383.095 20.3575 382.752 20.8259C382.419 21.2839 381.935 21.6951 381.3 22.0594L379.801 22.9337C379.697 23.0066 379.572 23.043 379.426 23.043C379.103 23.043 378.906 22.9025 378.833 22.6215V20.014ZM380.566 15.611C380.618 15.5901 380.691 15.5589 380.784 15.5173C380.878 15.4652 380.961 15.4132 381.034 15.3611L381.315 15.1269C381.461 15.0541 381.602 14.9552 381.737 14.8303C381.872 14.695 381.987 14.5544 382.08 14.4087C382.184 14.2526 382.268 14.0912 382.33 13.9247C382.393 13.7581 382.424 13.5968 382.424 13.4407C382.424 13.4198 382.419 13.3938 382.408 13.3626C382.408 13.3314 382.408 13.3054 382.408 13.2845C382.356 12.8994 382.028 12.6027 381.425 12.3946C381.404 12.3841 381.362 12.3633 381.3 12.3321C381.248 12.3009 381.185 12.2644 381.112 12.2228C381.039 12.1812 380.961 12.1447 380.878 12.1135C380.805 12.0823 380.748 12.0667 380.706 12.0667C380.675 12.0667 380.644 12.0719 380.613 12.0823C380.592 12.0823 380.555 12.0875 380.503 12.0979C380.493 12.1812 380.488 12.2696 380.488 12.3633C380.488 12.457 380.488 12.5559 380.488 12.66C380.488 13.0764 380.477 13.5448 380.457 14.0652C380.436 14.5753 380.425 15.1113 380.425 15.6734L380.566 15.611ZM380.332 21.3099C380.446 21.2058 380.555 21.1122 380.66 21.0289C380.764 20.956 380.868 20.878 380.972 20.7947C381.284 20.5553 381.503 20.3419 381.628 20.1545C381.763 19.9567 381.867 19.7069 381.94 19.4051C381.95 19.353 381.955 19.301 381.955 19.2489C381.966 19.1865 381.971 19.1292 381.971 19.0772C381.971 18.7649 381.862 18.4891 381.643 18.2497C381.383 18.0727 381.164 17.9478 380.987 17.8749C380.81 17.8021 380.68 17.7656 380.597 17.7656C380.545 17.7656 380.488 17.7656 380.425 17.7656C380.363 17.7656 380.3 17.776 380.238 17.7969C380.217 18.2653 380.196 18.6972 380.176 19.0928C380.155 19.4883 380.144 19.8839 380.144 20.2794C380.144 20.446 380.149 20.6125 380.16 20.7791C380.181 20.9352 380.202 21.1122 380.222 21.3099H380.332ZM385.154 11.8325C385.154 11.7388 385.185 11.6607 385.247 11.5983C385.32 11.5254 385.409 11.489 385.513 11.489H385.684C385.799 11.489 385.945 11.5046 386.122 11.5358C386.371 11.6815 386.528 11.9418 386.59 12.3165C386.611 12.483 386.627 12.6496 386.637 12.8161C386.647 12.9827 386.658 13.1492 386.668 13.3158C386.71 13.6697 386.736 14.034 386.746 14.4087C386.767 14.773 386.777 15.1426 386.777 15.5173C386.777 15.7151 386.772 15.9128 386.762 16.1106C386.762 16.3084 386.757 16.5113 386.746 16.7195C386.663 18.3329 386.439 19.6237 386.075 20.5917C385.711 21.5493 385.169 22.2311 384.451 22.6371C384.222 22.7724 384.009 22.8401 383.811 22.8401C383.519 22.8401 383.275 22.7724 383.077 22.6371C382.775 22.4289 382.624 22.2207 382.624 22.0125C382.624 21.7835 382.754 21.669 383.015 21.669C383.067 21.669 383.15 21.6847 383.264 21.7159C383.379 21.7471 383.462 21.7627 383.514 21.7627C383.597 21.7627 383.686 21.7471 383.78 21.7159C383.884 21.6951 383.962 21.6482 384.014 21.5754C384.316 21.2423 384.56 20.8727 384.748 20.4668C384.935 20.0504 385.081 19.5976 385.185 19.1084C385.289 18.6192 385.357 18.0935 385.388 17.5314C385.429 16.9693 385.45 16.3708 385.45 15.7359C385.45 15.4132 385.44 15.0593 385.419 14.6741C385.409 14.289 385.383 13.8726 385.341 13.4251C385.32 13.2585 385.294 13.0503 385.263 12.8005C385.242 12.5403 385.206 12.2436 385.154 11.9105V11.8325ZM387.658 16.7351C387.679 16.6415 387.757 16.5582 387.893 16.4853C388.049 16.402 388.137 16.3188 388.158 16.2355C388.168 16.1939 388.184 16.0533 388.205 15.8139C388.226 15.5745 388.252 15.2206 388.283 14.7522C387.71 14.6481 387.424 14.4295 387.424 14.0964C387.435 13.7946 387.617 13.5552 387.971 13.3782L388.97 12.9723C389.168 12.8682 389.386 12.7745 389.626 12.6912C389.865 12.6079 390.13 12.5247 390.422 12.4414C390.682 12.3685 390.937 12.3009 391.187 12.2384C391.437 12.176 391.692 12.1135 391.952 12.0511C391.973 12.0406 392.035 12.0354 392.139 12.0354C392.42 12.0354 392.748 12.1447 393.123 12.3633C393.133 12.405 393.16 12.483 393.201 12.5975C393.243 12.712 393.264 12.7953 393.264 12.8474C393.264 12.941 393.227 13.0087 393.154 13.0503C392.957 13.1336 392.717 13.2221 392.436 13.3158C392.155 13.399 391.827 13.4927 391.452 13.5968C391.078 13.7009 390.75 13.7998 390.469 13.8935C390.188 13.9767 389.948 14.06 389.751 14.1433C389.709 14.2682 389.667 14.4816 389.626 14.7834C389.594 15.0853 389.568 15.4756 389.548 15.9545C389.714 16.0169 389.907 16.0481 390.125 16.0481C390.209 16.0481 390.307 16.0429 390.422 16.0325C390.547 16.0117 390.693 15.9909 390.859 15.9701C391.026 15.9493 391.166 15.9336 391.281 15.9232C391.406 15.9024 391.51 15.892 391.593 15.892C391.884 15.892 392.134 15.9545 392.342 16.0794C392.488 16.2875 392.561 16.4229 392.561 16.4853C392.561 16.5582 392.525 16.6154 392.452 16.6571C392.441 16.6675 392.415 16.6883 392.374 16.7195C392.342 16.7508 392.296 16.8028 392.233 16.8757C392.171 16.9589 392.067 17.0006 391.921 17.0006C391.702 17.0422 391.302 17.0734 390.719 17.0943C390.229 17.1151 389.839 17.1775 389.548 17.2816C389.35 18.0103 389.251 18.6192 389.251 19.1084C389.251 19.3895 389.293 19.6289 389.376 19.8266C389.803 20.1285 390.505 20.2794 391.484 20.2794C391.557 20.2794 391.624 20.2794 391.687 20.2794C391.76 20.269 391.838 20.2638 391.921 20.2638C392.004 20.2638 392.093 20.2274 392.186 20.1545C392.28 20.0712 392.358 20.0296 392.42 20.0296C392.441 20.0296 392.457 20.0296 392.467 20.0296C392.478 20.0192 392.493 20.014 392.514 20.014C392.764 20.014 392.925 20.2378 392.998 20.6854C392.998 20.7062 392.998 20.727 392.998 20.7478C393.009 20.7687 393.014 20.7895 393.014 20.8103C393.014 20.956 392.967 21.0809 392.873 21.185C392.79 21.2995 392.675 21.362 392.53 21.3724C392.436 21.3724 392.342 21.3724 392.249 21.3724C392.155 21.3828 392.061 21.388 391.968 21.388C390.968 21.388 390.063 21.2839 389.251 21.0757C388.959 21.0029 388.694 20.8415 388.455 20.5917C388.215 20.3419 388.08 20.0608 388.049 19.7486C388.028 19.5196 388.007 19.301 387.986 19.0928C387.976 18.8846 387.971 18.6764 387.971 18.4682C387.971 18.2601 387.976 18.0623 387.986 17.8749C388.007 17.6772 388.028 17.4898 388.049 17.3128C387.788 17.1255 387.658 16.9537 387.658 16.7976V16.7351ZM397.237 21.0133C397.237 21.0757 397.232 21.1278 397.222 21.1694C397.222 21.2214 397.217 21.2683 397.206 21.3099C397.154 21.4661 397.05 21.5441 396.894 21.5441C396.592 21.5337 396.342 21.4036 396.144 21.1538C395.957 20.9144 395.853 20.6437 395.832 20.3419C395.801 19.9567 395.785 19.5508 395.785 19.124C395.785 18.437 395.832 17.3493 395.926 15.8608C395.967 15.2362 395.999 14.6793 396.019 14.1901C396.04 13.6905 396.051 13.2585 396.051 12.8942V12.5975H395.848C395.723 12.5975 395.577 12.6027 395.411 12.6131C395.254 12.6236 395.077 12.6444 394.88 12.6756C394.765 12.6964 394.677 12.7172 394.614 12.7381C394.552 12.7485 394.463 12.7537 394.349 12.7537C393.849 12.7537 393.433 12.6184 393.1 12.3477C392.975 12.0875 392.912 11.947 392.912 11.9261C392.912 11.8429 392.949 11.7648 393.022 11.6919C393.188 11.6399 393.381 11.5931 393.599 11.5514C393.818 11.4994 394.089 11.4577 394.411 11.4265C395.286 11.3328 395.962 11.1663 396.441 10.9269C396.837 11.0414 397.253 11.0986 397.69 11.0986C398.127 11.0986 398.575 11.0414 399.033 10.9269C399.095 10.9165 399.194 10.8956 399.33 10.8644C399.465 10.8228 399.605 10.7812 399.751 10.7395C400.001 10.6667 400.246 10.6302 400.485 10.6302C400.516 10.6302 400.547 10.6354 400.579 10.6458C400.62 10.6458 400.657 10.6458 400.688 10.6458C400.844 10.6458 400.922 10.7031 400.922 10.8176V10.88C401.203 10.88 401.344 10.9737 401.344 11.1611C401.25 11.5358 401.073 11.7544 400.813 11.8169C400.48 11.9001 400.053 11.9938 399.533 12.0979C399.022 12.1916 398.351 12.3061 397.518 12.4414C397.414 13.7529 397.336 14.9396 397.284 16.0013C397.232 17.063 397.206 18.0363 397.206 18.921C397.206 19.2541 397.206 19.582 397.206 19.9047C397.217 20.217 397.227 20.5345 397.237 20.8571V21.0133ZM401.964 12.9566C401.975 13.1024 401.98 13.2533 401.98 13.4094C401.99 13.5656 401.996 13.7269 401.996 13.8935C401.996 14.2474 401.975 14.6898 401.933 15.2206C401.902 15.7515 401.85 16.376 401.777 17.0943C401.704 17.8125 401.647 18.4422 401.605 18.9835C401.574 19.5144 401.558 19.962 401.558 20.3263C401.558 20.4616 401.558 20.5969 401.558 20.7322C401.558 20.8571 401.564 20.9872 401.574 21.1226C401.48 21.4036 401.277 21.5441 400.965 21.5441C400.518 21.5233 400.273 21.3307 400.231 20.9664C400.21 20.7895 400.195 20.6073 400.184 20.42C400.174 20.2222 400.169 20.0192 400.169 19.811C400.169 19.4571 400.19 19.0199 400.231 18.4995C400.273 17.979 400.335 17.3597 400.419 16.6415C400.502 15.9232 400.564 15.3091 400.606 14.7991C400.658 14.2786 400.684 13.8414 400.684 13.4875C400.684 13.3522 400.679 13.2221 400.668 13.0972C400.668 12.9619 400.663 12.8265 400.653 12.6912C400.757 12.4934 400.934 12.3946 401.184 12.3946C401.371 12.3946 401.569 12.4518 401.777 12.5663C401.819 12.5351 401.85 12.5195 401.871 12.5195C401.902 12.5195 401.918 12.5715 401.918 12.6756C401.907 12.7172 401.902 12.7693 401.902 12.8317C401.902 12.8734 401.907 12.8942 401.918 12.8942L401.964 12.9566ZM405.333 22.1999C405.125 21.7003 404.901 21.0601 404.662 20.2794C404.433 19.4987 404.183 18.5463 403.912 17.4221C403.402 15.3195 402.892 13.7113 402.382 12.5975C402.517 12.3373 402.632 12.2072 402.726 12.2072C402.809 12.1551 402.892 12.1291 402.975 12.1291C403.132 12.1291 403.423 12.2853 403.85 12.5975C404.048 13.0451 404.23 13.5291 404.396 14.0496C404.573 14.5701 404.745 15.1321 404.912 15.7359C404.984 16.0065 405.062 16.3136 405.146 16.6571C405.229 16.9902 405.307 17.3337 405.38 17.6876C405.463 18.0311 405.541 18.3746 405.614 18.7181C405.687 19.0512 405.755 19.3582 405.817 19.6393C405.932 18.8586 406.093 18.0727 406.301 17.2816C406.509 16.4905 406.712 15.7671 406.91 15.1113C407.358 13.7061 407.826 12.4674 408.315 11.3953C408.419 11.1975 408.602 11.0986 408.862 11.0986C408.903 11.0986 408.945 11.0986 408.987 11.0986C409.028 11.0986 409.075 11.109 409.127 11.1299C409.179 11.1507 409.231 11.1923 409.283 11.2548C409.315 11.286 409.351 11.3068 409.393 11.3172C409.434 11.3276 409.476 11.3432 409.518 11.3641C409.559 11.3745 409.59 11.3953 409.611 11.4265C409.642 11.4577 409.658 11.5098 409.658 11.5826C409.658 11.6555 409.632 11.7596 409.58 11.8949C409.174 12.6652 408.596 14.086 407.847 16.1574C407.618 16.7508 407.347 17.7656 407.035 19.2021C406.889 19.8891 406.749 20.4824 406.613 20.982C406.489 21.4921 406.358 21.9241 406.223 22.278C406.129 22.3821 406.02 22.4341 405.895 22.4341C405.749 22.4341 405.562 22.356 405.333 22.1999ZM414.329 17.4846C414.173 17.8489 413.985 18.1872 413.767 18.4995C413.548 18.8013 413.309 19.0668 413.049 19.2958C412.799 19.5144 412.523 19.6861 412.221 19.811C411.93 19.9359 411.628 19.9984 411.315 19.9984C411.097 19.9984 410.847 19.9411 410.566 19.8266C410.295 19.7121 410.035 19.5404 409.785 19.3114C409.546 19.0824 409.338 18.8065 409.161 18.4839C408.994 18.1508 408.911 17.7656 408.911 17.3285C408.911 16.985 408.973 16.5894 409.098 16.1418C409.234 15.6838 409.405 15.2518 409.614 14.8459C409.832 14.4399 410.082 14.0964 410.363 13.8154C410.644 13.5343 410.936 13.3938 411.237 13.3938C411.31 13.3938 411.368 13.4042 411.409 13.4251C411.461 13.4459 411.513 13.4719 411.565 13.5031C411.628 13.5343 411.701 13.576 411.784 13.628C411.867 13.6801 411.982 13.7373 412.127 13.7998C412.221 13.8414 412.325 13.8883 412.44 13.9403C412.565 13.9819 412.71 14.0288 412.877 14.0808C413.189 14.1849 413.449 14.3515 413.658 14.5805C413.866 14.8095 414.032 15.0593 414.157 15.3299C414.282 15.5901 414.365 15.8504 414.407 16.1106C414.459 16.3604 414.485 16.5634 414.485 16.7195C414.485 17.0214 414.433 17.2764 414.329 17.4846ZM413.08 16.5165C413.028 16.1002 412.939 15.7671 412.814 15.5173C412.7 15.2571 412.539 15.1269 412.33 15.1269C412.268 15.1269 412.185 15.1686 412.081 15.2518C411.987 15.3247 411.888 15.408 411.784 15.5017C411.69 15.5953 411.597 15.6838 411.503 15.7671C411.42 15.84 411.362 15.8764 411.331 15.8764C411.248 15.8764 411.149 15.8348 411.034 15.7515C410.92 15.6682 410.842 15.6266 410.8 15.6266C410.696 15.6266 410.602 15.6838 410.519 15.7983C410.446 15.9024 410.384 16.0325 410.332 16.1887C410.28 16.3344 410.238 16.4957 410.207 16.6727C410.186 16.8392 410.176 16.985 410.176 17.1099C410.176 17.3805 410.217 17.6251 410.301 17.8437C410.384 18.0623 410.483 18.2497 410.597 18.4058C410.712 18.5619 410.826 18.6816 410.941 18.7649C411.066 18.8482 411.159 18.8898 411.222 18.8898C411.42 18.8898 411.628 18.8222 411.846 18.6868C412.065 18.5411 412.263 18.359 412.44 18.1404C412.627 17.9218 412.778 17.6824 412.892 17.4221C413.017 17.1619 413.08 16.9121 413.08 16.6727V16.5165Z" fill="black"/>
<path d="M0 203.737H82.9759V150.839H163.825V100.253H246.934V48.7603H436.712" stroke="black" stroke-width="2.20397"/>
<path d="M323.415 48.6882V20.0865M323.415 20.0865V5.78568L343.58 12.078L323.415 20.0865Z" stroke="black" stroke-width="2.20397"/>
<path d="M72.7393 119.713C99.6344 76.8472 182.775 -6.56467 300.178 2.71444" stroke="black" stroke-width="2.20397"/>
<path d="M59.6103 166.002C59.6483 165.985 59.6872 165.968 59.7269 165.951C60.1692 163.964 60.9817 160.536 61.4483 159.369C62.0876 157.771 60.809 153.855 59.6103 152.656C59.2266 152.272 58.7938 151.921 58.325 151.611C57.3291 150.952 56.1707 150.476 54.9754 150.259C53.2173 149.939 51.8588 151.218 51.619 152.656C51.3793 154.094 52.4981 155.373 52.6579 158.969C52.7858 161.846 51.4326 164.057 50.74 164.803C53.0655 165.419 58.0952 166.521 59.6103 166.002Z" fill="black"/>
<path d="M30.8436 162.166C34.4657 165.016 42.381 171.148 45.0661 172.874C48.4225 175.032 51.5391 173.993 50.74 164.803M50.74 164.803C53.0655 165.419 58.0952 166.521 59.6103 166.002C59.6483 165.985 59.6872 165.968 59.7269 165.951M50.74 164.803C51.4326 164.057 52.7858 161.846 52.6579 158.969C52.4981 155.373 51.3793 154.094 51.619 152.656C51.8588 151.218 53.2173 149.939 54.9754 150.259C56.1707 150.476 57.3291 150.952 58.325 151.611M81.9061 178.388C79.2689 175.538 73.2115 169.166 70.0789 166.481C67.0008 163.843 61.9731 165 59.7269 165.951M59.6103 166.481C59.6454 166.32 59.6844 166.142 59.7269 165.951M58.325 151.611C58.7938 151.921 59.2266 152.272 59.6103 152.656C60.809 153.855 62.0876 157.771 61.4483 159.369C60.9817 160.536 60.1692 163.964 59.7269 165.951M58.325 151.611C59.5425 151.555 60.9592 151.492 62.4902 151.425M83.9171 150.717C83.7281 150.7 83.3547 150.694 82.8296 150.697M62.4902 151.425C65.6983 153.398 72.5322 157.181 74.2027 156.527C75.8732 155.873 80.65 152.368 82.8296 150.697M62.4902 151.425C69.6968 151.109 79.4341 150.717 82.8296 150.697" stroke="black" stroke-width="1.10198"/>
<path d="M54.096 143.772C57.5838 141.986 61.0709 143.219 61.5812 144.707C62.0131 145.967 62.5667 147.531 62.0055 148.832C62.1886 148.865 62.6418 148.91 62.9897 148.832C63.4246 148.736 65.1156 147.576 65.8887 146.9C66.6618 146.223 67.4348 144.967 67.8697 143.324C68.2175 142.01 66.4363 140.651 65.5022 140.135C65.5183 138.879 65.3572 136.173 64.5842 135.4C63.6178 134.434 62.0717 133.854 58.9795 134.096C56.5057 134.289 56.8536 136.624 57.3367 137.768C57.0468 137.687 56.1481 137.574 54.8726 137.768C53.2782 138.009 52.3118 138.831 51.587 140.812C51.0072 142.396 52.3868 143.925 53.1491 144.492C53.3891 144.218 53.7004 143.974 54.096 143.772Z" fill="black"/>
<path d="M53.7559 150.236C52.8554 148.898 51.6959 146.148 53.1491 144.492M58.7318 151.512C59.2847 151.313 60.6286 150.636 61.5812 149.513C61.7645 149.297 61.9034 149.069 62.0055 148.832M53.1491 144.492C53.3891 144.218 53.7004 143.974 54.096 143.772C57.5838 141.986 61.0709 143.219 61.5812 144.707C62.0131 145.967 62.5667 147.531 62.0055 148.832M53.1491 144.492C52.3868 143.925 51.0072 142.396 51.587 140.812C52.3118 138.831 53.2782 138.009 54.8726 137.768C56.1481 137.574 57.0468 137.687 57.3367 137.768C56.8536 136.624 56.5057 134.289 58.9795 134.096C62.0717 133.854 63.6178 134.434 64.5842 135.4C65.3572 136.173 65.5183 138.879 65.5022 140.135C66.4363 140.651 68.2175 142.01 67.8697 143.324C67.4348 144.967 66.6618 146.223 65.8887 146.9C65.1156 147.576 63.4246 148.736 62.9897 148.832C62.6418 148.91 62.1886 148.865 62.0055 148.832" stroke="black" stroke-width="1.10198"/>
<path d="M57.616 148.211C57.9824 148.489 58.9318 149.058 59.7984 149.114" stroke="black" stroke-width="0.275496"/>
<ellipse cx="59.6081" cy="145.996" rx="0.368045" ry="0.520725" transform="rotate(19.2817 59.6081 145.996)" fill="black"/>
<ellipse cx="60.656" cy="146.98" rx="0.368045" ry="0.520725" transform="rotate(19.2817 60.656 146.98)" fill="black"/>
</svg>
